<svg xmlns="http://www.w3.org/2000/svg" viewBox="0 0 24 24"><path fill="white" d="M23.39 6.56c-2.77 0.08-6.12-2.1-7.42-2.92 -0.12-0.07-0.15-0.15-0.27-0.21 -0.13-0.08-0.28-0.15-0.42-0.22v8.01h0c0 0.72-0.31 1.47-0.75 2.2l-0.04 0.06c-1.3 2.1-4.03 3.32-6.59 2.46 -2.49-0.84-3.15-3.25-1.83-5.38L6.1 10.51c1.3-2.1 4.03-3.32 6.59-2.45 0.2 0.07 0.38 0.15 0.55 0.23V2.49c-0.92-0.25-1.89-0.39-2.91-0.39C4.4 2.1 0 6.54 0 12v0.07C0 17.54 4.36 21.9 10.26 21.9c5.93 0 10.33-4.44 10.33-9.9v-0.07c0-0.43-0.03-0.84-0.08-1.26C23.59 9.87 24.86 6.68 23.39 6.56"/><path fill="white" d="M19.15 19.95h-0.62v-0.34h1.56v0.34h-0.54v1.49h-0.4V19.95"/><path fill="white" d="M20.36 19.61h0.55l0.44 1.28h0.01l0.41-1.28h0.56v1.83h-0.4v-1.29h0l-0.42 1.29h-0.32l-0.42-1.28h-0.01v1.28h-0.4V19.61"/></svg>